<mxfile host="app.diagrams.net" agent="Mozilla/5.0 (Windows NT 10.0; Win64; x64) AppleWebKit/537.36 (KHTML, like Gecko) Chrome/134.0.0.0 Safari/537.36 Edg/134.0.0.0" version="26.1.0">
  <diagram name="Página-1" id="Cpw3zNgjgTNZ07fYYYRe">
    <mxGraphModel dx="1737" dy="942" grid="0" gridSize="10" guides="1" tooltips="1" connect="1" arrows="1" fold="1" page="1" pageScale="1" pageWidth="827" pageHeight="1169" math="0" shadow="0">
      <root>
        <mxCell id="0" />
        <mxCell id="1" parent="0" />
        <mxCell id="4wKR0VVO4Z2LBif7FaJZ-10" value="&lt;h1 style=&quot;margin-top: 0px;&quot;&gt;Sistema de Filtragem de Água&amp;nbsp;&lt;/h1&gt;&lt;p&gt;E1 - TESTAR SENSORES&lt;br&gt;&lt;br&gt;E2 - AGUARDANDO (Torneira Fechada)&lt;/p&gt;&lt;p&gt;&lt;span style=&quot;background-color: transparent; color: light-dark(rgb(0, 0, 0), rgb(255, 255, 255));&quot;&gt;E3 - TORNEIRA ABERTA&lt;/span&gt;&lt;/p&gt;&lt;p&gt;&lt;span style=&quot;background-color: transparent; color: light-dark(rgb(0, 0, 0), rgb(255, 255, 255));&quot;&gt;E4 - MONITORAMENTO DE VAZAMENTOS&lt;/span&gt;&lt;/p&gt;&lt;p&gt;&lt;span style=&quot;background-color: transparent; color: light-dark(rgb(0, 0, 0), rgb(255, 255, 255));&quot;&gt;E5 - FILTRO CAPACIDADE MAXIMA ATINGIDA&lt;/span&gt;&lt;/p&gt;&lt;p&gt;&lt;span style=&quot;background-color: transparent; color: light-dark(rgb(0, 0, 0), rgb(255, 255, 255));&quot;&gt;E6 - FILTRO (FALTA 100L)&lt;/span&gt;&lt;/p&gt;" style="text;html=1;whiteSpace=wrap;overflow=hidden;rounded=0;" parent="1" vertex="1">
          <mxGeometry x="12" y="21" width="366" height="204" as="geometry" />
        </mxCell>
        <mxCell id="fFh5RqsiBWmTlAHbZuiL-181" style="edgeStyle=orthogonalEdgeStyle;rounded=0;orthogonalLoop=1;jettySize=auto;html=1;exitX=0.5;exitY=1;exitDx=0;exitDy=0;entryX=0.5;entryY=0;entryDx=0;entryDy=0;" parent="1" source="4wKR0VVO4Z2LBif7FaJZ-12" target="fFh5RqsiBWmTlAHbZuiL-179" edge="1">
          <mxGeometry relative="1" as="geometry" />
        </mxCell>
        <mxCell id="5jFHLmjebThevECd06Mf-3" value="Se pressionar o botão (Testar)" style="edgeLabel;html=1;align=center;verticalAlign=middle;resizable=0;points=[];" vertex="1" connectable="0" parent="fFh5RqsiBWmTlAHbZuiL-181">
          <mxGeometry x="0.0922" y="1" relative="1" as="geometry">
            <mxPoint x="-1" y="9" as="offset" />
          </mxGeometry>
        </mxCell>
        <mxCell id="5jFHLmjebThevECd06Mf-2" style="edgeStyle=orthogonalEdgeStyle;rounded=0;orthogonalLoop=1;jettySize=auto;html=1;exitX=0.5;exitY=1;exitDx=0;exitDy=0;entryX=0;entryY=0.5;entryDx=0;entryDy=0;" edge="1" parent="1" source="4wKR0VVO4Z2LBif7FaJZ-12" target="fFh5RqsiBWmTlAHbZuiL-1">
          <mxGeometry relative="1" as="geometry" />
        </mxCell>
        <mxCell id="4wKR0VVO4Z2LBif7FaJZ-12" value="INICIO" style="ellipse;whiteSpace=wrap;html=1;aspect=fixed;" parent="1" vertex="1">
          <mxGeometry x="118" y="242" width="80" height="80" as="geometry" />
        </mxCell>
        <mxCell id="fFh5RqsiBWmTlAHbZuiL-4" value="" style="edgeStyle=orthogonalEdgeStyle;rounded=0;orthogonalLoop=1;jettySize=auto;html=1;" parent="1" source="fFh5RqsiBWmTlAHbZuiL-1" target="fFh5RqsiBWmTlAHbZuiL-3" edge="1">
          <mxGeometry relative="1" as="geometry" />
        </mxCell>
        <mxCell id="fFh5RqsiBWmTlAHbZuiL-10" value="TORNEIRA ABERTA&lt;div&gt;Caldalimetro &amp;gt; 0&lt;/div&gt;" style="edgeLabel;html=1;align=center;verticalAlign=middle;resizable=0;points=[];fontSize=9;" parent="fFh5RqsiBWmTlAHbZuiL-4" vertex="1" connectable="0">
          <mxGeometry x="-0.18" y="4" relative="1" as="geometry">
            <mxPoint x="7" y="1" as="offset" />
          </mxGeometry>
        </mxCell>
        <mxCell id="fFh5RqsiBWmTlAHbZuiL-12" value="" style="edgeStyle=orthogonalEdgeStyle;rounded=0;orthogonalLoop=1;jettySize=auto;html=1;" parent="1" source="fFh5RqsiBWmTlAHbZuiL-1" target="fFh5RqsiBWmTlAHbZuiL-11" edge="1">
          <mxGeometry relative="1" as="geometry" />
        </mxCell>
        <mxCell id="fFh5RqsiBWmTlAHbZuiL-13" value="" style="edgeStyle=orthogonalEdgeStyle;rounded=0;orthogonalLoop=1;jettySize=auto;html=1;" parent="1" source="fFh5RqsiBWmTlAHbZuiL-1" target="fFh5RqsiBWmTlAHbZuiL-11" edge="1">
          <mxGeometry relative="1" as="geometry" />
        </mxCell>
        <mxCell id="fFh5RqsiBWmTlAHbZuiL-14" value="Torneira Fechada&lt;div&gt;Detecta fuga&lt;/div&gt;" style="edgeLabel;html=1;align=center;verticalAlign=middle;resizable=0;points=[];fontSize=9;" parent="fFh5RqsiBWmTlAHbZuiL-13" vertex="1" connectable="0">
          <mxGeometry x="-0.015" y="-2" relative="1" as="geometry">
            <mxPoint as="offset" />
          </mxGeometry>
        </mxCell>
        <mxCell id="fFh5RqsiBWmTlAHbZuiL-1" value="E2" style="ellipse;whiteSpace=wrap;html=1;aspect=fixed;" parent="1" vertex="1">
          <mxGeometry x="256" y="310" width="80" height="80" as="geometry" />
        </mxCell>
        <mxCell id="fFh5RqsiBWmTlAHbZuiL-7" value="" style="edgeStyle=orthogonalEdgeStyle;rounded=0;orthogonalLoop=1;jettySize=auto;html=1;entryX=0;entryY=0.5;entryDx=0;entryDy=0;" parent="1" source="fFh5RqsiBWmTlAHbZuiL-3" target="fFh5RqsiBWmTlAHbZuiL-23" edge="1">
          <mxGeometry relative="1" as="geometry">
            <mxPoint x="752" y="466" as="targetPoint" />
          </mxGeometry>
        </mxCell>
        <mxCell id="fFh5RqsiBWmTlAHbZuiL-30" value="Falta 100L" style="edgeLabel;html=1;align=center;verticalAlign=middle;resizable=0;points=[];fontSize=9;" parent="fFh5RqsiBWmTlAHbZuiL-7" vertex="1" connectable="0">
          <mxGeometry x="0.6561" y="-1" relative="1" as="geometry">
            <mxPoint x="-33" y="17" as="offset" />
          </mxGeometry>
        </mxCell>
        <mxCell id="5jFHLmjebThevECd06Mf-4" style="edgeStyle=orthogonalEdgeStyle;rounded=0;orthogonalLoop=1;jettySize=auto;html=1;exitX=0.5;exitY=1;exitDx=0;exitDy=0;entryX=1;entryY=0.5;entryDx=0;entryDy=0;" edge="1" parent="1" source="fFh5RqsiBWmTlAHbZuiL-3" target="fFh5RqsiBWmTlAHbZuiL-11">
          <mxGeometry relative="1" as="geometry" />
        </mxCell>
        <mxCell id="5jFHLmjebThevECd06Mf-5" value="Detectou fuga" style="edgeLabel;html=1;align=center;verticalAlign=middle;resizable=0;points=[];" vertex="1" connectable="0" parent="5jFHLmjebThevECd06Mf-4">
          <mxGeometry x="0.3902" relative="1" as="geometry">
            <mxPoint as="offset" />
          </mxGeometry>
        </mxCell>
        <mxCell id="fFh5RqsiBWmTlAHbZuiL-3" value="E3" style="ellipse;whiteSpace=wrap;html=1;aspect=fixed;" parent="1" vertex="1">
          <mxGeometry x="488" y="310" width="80" height="80" as="geometry" />
        </mxCell>
        <mxCell id="fFh5RqsiBWmTlAHbZuiL-11" value="E4" style="ellipse;whiteSpace=wrap;html=1;aspect=fixed;" parent="1" vertex="1">
          <mxGeometry x="259" y="463" width="80" height="80" as="geometry" />
        </mxCell>
        <mxCell id="fFh5RqsiBWmTlAHbZuiL-20" value="" style="edgeStyle=orthogonalEdgeStyle;rounded=0;orthogonalLoop=1;jettySize=auto;html=1;exitX=1;exitY=0.5;exitDx=0;exitDy=0;entryX=0;entryY=0.5;entryDx=0;entryDy=0;" parent="1" source="fFh5RqsiBWmTlAHbZuiL-3" target="fFh5RqsiBWmTlAHbZuiL-19" edge="1">
          <mxGeometry relative="1" as="geometry">
            <mxPoint x="669" y="406" as="sourcePoint" />
          </mxGeometry>
        </mxCell>
        <mxCell id="fFh5RqsiBWmTlAHbZuiL-21" value="Capacidade Maxima Atingida" style="edgeLabel;html=1;align=center;verticalAlign=middle;resizable=0;points=[];fontSize=9;" parent="fFh5RqsiBWmTlAHbZuiL-20" vertex="1" connectable="0">
          <mxGeometry x="-0.3" relative="1" as="geometry">
            <mxPoint x="6" y="15" as="offset" />
          </mxGeometry>
        </mxCell>
        <mxCell id="fFh5RqsiBWmTlAHbZuiL-19" value="E5" style="ellipse;whiteSpace=wrap;html=1;aspect=fixed;" parent="1" vertex="1">
          <mxGeometry x="707.5" y="401" width="80" height="80" as="geometry" />
        </mxCell>
        <mxCell id="fFh5RqsiBWmTlAHbZuiL-23" value="E6" style="ellipse;whiteSpace=wrap;html=1;aspect=fixed;" parent="1" vertex="1">
          <mxGeometry x="707.5" y="244" width="80" height="80" as="geometry" />
        </mxCell>
        <mxCell id="fFh5RqsiBWmTlAHbZuiL-31" value="&lt;h1 style=&quot;margin-top: 0px;&quot;&gt;Fluxograma&lt;/h1&gt;" style="text;html=1;whiteSpace=wrap;overflow=hidden;rounded=0;" parent="1" vertex="1">
          <mxGeometry x="8" y="545" width="180" height="42" as="geometry" />
        </mxCell>
        <mxCell id="fFh5RqsiBWmTlAHbZuiL-34" value="E2" style="swimlane;whiteSpace=wrap;html=1;" parent="1" vertex="1">
          <mxGeometry x="9" y="985" width="810" height="203" as="geometry">
            <mxRectangle x="86" y="812" width="50" height="26" as="alternateBounds" />
          </mxGeometry>
        </mxCell>
        <mxCell id="fFh5RqsiBWmTlAHbZuiL-43" value="" style="edgeStyle=orthogonalEdgeStyle;rounded=0;orthogonalLoop=1;jettySize=auto;html=1;" parent="fFh5RqsiBWmTlAHbZuiL-34" source="fFh5RqsiBWmTlAHbZuiL-41" target="fFh5RqsiBWmTlAHbZuiL-42" edge="1">
          <mxGeometry relative="1" as="geometry" />
        </mxCell>
        <mxCell id="fFh5RqsiBWmTlAHbZuiL-78" value="Caldalimetro &amp;lt; 0" style="edgeLabel;html=1;align=center;verticalAlign=middle;resizable=0;points=[];" parent="fFh5RqsiBWmTlAHbZuiL-43" vertex="1" connectable="0">
          <mxGeometry x="0.0037" relative="1" as="geometry">
            <mxPoint x="-5" as="offset" />
          </mxGeometry>
        </mxCell>
        <mxCell id="fFh5RqsiBWmTlAHbZuiL-41" value="Inicio" style="shape=cube;whiteSpace=wrap;html=1;boundedLbl=1;backgroundOutline=1;darkOpacity=0.05;darkOpacity2=0.1;" parent="fFh5RqsiBWmTlAHbZuiL-34" vertex="1">
          <mxGeometry x="25" y="87" width="90" height="43" as="geometry" />
        </mxCell>
        <mxCell id="fFh5RqsiBWmTlAHbZuiL-42" value="Valvula Emergencia Aberta" style="shape=cube;whiteSpace=wrap;html=1;boundedLbl=1;backgroundOutline=1;darkOpacity=0.05;darkOpacity2=0.1;" parent="fFh5RqsiBWmTlAHbZuiL-34" vertex="1">
          <mxGeometry x="250" y="45" width="151" height="127" as="geometry" />
        </mxCell>
        <mxCell id="fFh5RqsiBWmTlAHbZuiL-46" value="Fim" style="shape=cube;whiteSpace=wrap;html=1;boundedLbl=1;backgroundOutline=1;darkOpacity=0.05;darkOpacity2=0.1;" parent="fFh5RqsiBWmTlAHbZuiL-34" vertex="1">
          <mxGeometry x="597" y="105" width="86.5" height="43" as="geometry" />
        </mxCell>
        <mxCell id="fFh5RqsiBWmTlAHbZuiL-79" value="Led Verde&lt;div&gt;(OK)&lt;/div&gt;" style="shape=cube;whiteSpace=wrap;html=1;boundedLbl=1;backgroundOutline=1;darkOpacity=0.05;darkOpacity2=0.1;size=10;" parent="fFh5RqsiBWmTlAHbZuiL-34" vertex="1">
          <mxGeometry x="455" y="84" width="85" height="79" as="geometry" />
        </mxCell>
        <mxCell id="fFh5RqsiBWmTlAHbZuiL-83" style="edgeStyle=orthogonalEdgeStyle;rounded=0;orthogonalLoop=1;jettySize=auto;html=1;exitX=0;exitY=0;exitDx=85;exitDy=44.5;exitPerimeter=0;entryX=0;entryY=0;entryDx=0;entryDy=23;entryPerimeter=0;" parent="fFh5RqsiBWmTlAHbZuiL-34" source="fFh5RqsiBWmTlAHbZuiL-79" target="fFh5RqsiBWmTlAHbZuiL-46" edge="1">
          <mxGeometry relative="1" as="geometry">
            <mxPoint x="117" y="411" as="targetPoint" />
          </mxGeometry>
        </mxCell>
        <mxCell id="fFh5RqsiBWmTlAHbZuiL-168" style="edgeStyle=orthogonalEdgeStyle;rounded=0;orthogonalLoop=1;jettySize=auto;html=1;exitX=0;exitY=0;exitDx=151;exitDy=73.5;exitPerimeter=0;entryX=0;entryY=0;entryDx=0;entryDy=34.5;entryPerimeter=0;" parent="fFh5RqsiBWmTlAHbZuiL-34" source="fFh5RqsiBWmTlAHbZuiL-42" target="fFh5RqsiBWmTlAHbZuiL-79" edge="1">
          <mxGeometry relative="1" as="geometry" />
        </mxCell>
        <mxCell id="fFh5RqsiBWmTlAHbZuiL-35" value="E4" style="swimlane;whiteSpace=wrap;html=1;" parent="1" vertex="1">
          <mxGeometry x="3" y="1448" width="820" height="529" as="geometry">
            <mxRectangle x="304" y="812" width="50" height="26" as="alternateBounds" />
          </mxGeometry>
        </mxCell>
        <mxCell id="fFh5RqsiBWmTlAHbZuiL-50" value="Inicio" style="shape=cube;whiteSpace=wrap;html=1;boundedLbl=1;backgroundOutline=1;darkOpacity=0.05;darkOpacity2=0.1;" parent="fFh5RqsiBWmTlAHbZuiL-35" vertex="1">
          <mxGeometry x="34" y="48" width="90" height="43" as="geometry" />
        </mxCell>
        <mxCell id="fFh5RqsiBWmTlAHbZuiL-59" value="" style="edgeStyle=orthogonalEdgeStyle;rounded=0;orthogonalLoop=1;jettySize=auto;html=1;" parent="fFh5RqsiBWmTlAHbZuiL-35" source="fFh5RqsiBWmTlAHbZuiL-53" target="fFh5RqsiBWmTlAHbZuiL-58" edge="1">
          <mxGeometry relative="1" as="geometry" />
        </mxCell>
        <mxCell id="fFh5RqsiBWmTlAHbZuiL-53" value="Torneira Aberta&lt;div&gt;(Válvula Aberta)&lt;/div&gt;" style="shape=cube;whiteSpace=wrap;html=1;boundedLbl=1;backgroundOutline=1;darkOpacity=0.05;darkOpacity2=0.1;" parent="fFh5RqsiBWmTlAHbZuiL-35" vertex="1">
          <mxGeometry x="30" y="203" width="115" height="127" as="geometry" />
        </mxCell>
        <mxCell id="fFh5RqsiBWmTlAHbZuiL-55" style="edgeStyle=orthogonalEdgeStyle;rounded=0;orthogonalLoop=1;jettySize=auto;html=1;exitX=0;exitY=0;exitDx=55;exitDy=43;exitPerimeter=0;entryX=0;entryY=0;entryDx=57.5;entryDy=0;entryPerimeter=0;" parent="fFh5RqsiBWmTlAHbZuiL-35" source="fFh5RqsiBWmTlAHbZuiL-50" target="fFh5RqsiBWmTlAHbZuiL-53" edge="1">
          <mxGeometry relative="1" as="geometry" />
        </mxCell>
        <mxCell id="fFh5RqsiBWmTlAHbZuiL-88" value="Caldalimetro &amp;gt; 0" style="edgeLabel;html=1;align=center;verticalAlign=middle;resizable=0;points=[];" parent="fFh5RqsiBWmTlAHbZuiL-55" vertex="1" connectable="0">
          <mxGeometry x="-0.1018" y="-3" relative="1" as="geometry">
            <mxPoint x="3" as="offset" />
          </mxGeometry>
        </mxCell>
        <mxCell id="fFh5RqsiBWmTlAHbZuiL-112" value="" style="group" parent="fFh5RqsiBWmTlAHbZuiL-35" vertex="1" connectable="0">
          <mxGeometry x="201" y="227" width="493" height="281" as="geometry" />
        </mxCell>
        <mxCell id="fFh5RqsiBWmTlAHbZuiL-76" value="" style="edgeStyle=orthogonalEdgeStyle;rounded=0;orthogonalLoop=1;jettySize=auto;html=1;entryX=0;entryY=0;entryDx=0;entryDy=34.5;entryPerimeter=0;" parent="fFh5RqsiBWmTlAHbZuiL-112" source="fFh5RqsiBWmTlAHbZuiL-58" target="fFh5RqsiBWmTlAHbZuiL-89" edge="1">
          <mxGeometry relative="1" as="geometry">
            <mxPoint x="103" y="39.478260869565474" as="targetPoint" />
          </mxGeometry>
        </mxCell>
        <mxCell id="fFh5RqsiBWmTlAHbZuiL-58" value="Filtragem de Sedimento" style="shape=cube;whiteSpace=wrap;html=1;boundedLbl=1;backgroundOutline=1;darkOpacity=0.05;darkOpacity2=0.1;size=10;" parent="fFh5RqsiBWmTlAHbZuiL-112" vertex="1">
          <mxGeometry width="85" height="79" as="geometry" />
        </mxCell>
        <mxCell id="fFh5RqsiBWmTlAHbZuiL-91" value="" style="edgeStyle=orthogonalEdgeStyle;rounded=0;orthogonalLoop=1;jettySize=auto;html=1;" parent="fFh5RqsiBWmTlAHbZuiL-112" source="fFh5RqsiBWmTlAHbZuiL-89" target="fFh5RqsiBWmTlAHbZuiL-90" edge="1">
          <mxGeometry relative="1" as="geometry" />
        </mxCell>
        <mxCell id="fFh5RqsiBWmTlAHbZuiL-109" style="edgeStyle=orthogonalEdgeStyle;rounded=0;orthogonalLoop=1;jettySize=auto;html=1;exitX=0;exitY=0;exitDx=47.5;exitDy=79;exitPerimeter=0;entryX=0;entryY=0;entryDx=37.5;entryDy=0;entryPerimeter=0;curved=1;" parent="fFh5RqsiBWmTlAHbZuiL-112" source="fFh5RqsiBWmTlAHbZuiL-89" target="fFh5RqsiBWmTlAHbZuiL-94" edge="1">
          <mxGeometry relative="1" as="geometry">
            <mxPoint x="330.52169667119574" y="183.04356317934798" as="targetPoint" />
          </mxGeometry>
        </mxCell>
        <mxCell id="fFh5RqsiBWmTlAHbZuiL-89" value="Filtro&lt;br&gt;AB" style="shape=cube;whiteSpace=wrap;html=1;boundedLbl=1;backgroundOutline=1;darkOpacity=0.05;darkOpacity2=0.1;size=10;" parent="fFh5RqsiBWmTlAHbZuiL-112" vertex="1">
          <mxGeometry x="140" y="5" width="85" height="79" as="geometry" />
        </mxCell>
        <mxCell id="fFh5RqsiBWmTlAHbZuiL-93" value="" style="edgeStyle=orthogonalEdgeStyle;rounded=0;orthogonalLoop=1;jettySize=auto;html=1;" parent="fFh5RqsiBWmTlAHbZuiL-112" source="fFh5RqsiBWmTlAHbZuiL-90" target="fFh5RqsiBWmTlAHbZuiL-92" edge="1">
          <mxGeometry relative="1" as="geometry" />
        </mxCell>
        <mxCell id="fFh5RqsiBWmTlAHbZuiL-90" value="Filtro C" style="shape=cube;whiteSpace=wrap;html=1;boundedLbl=1;backgroundOutline=1;darkOpacity=0.05;darkOpacity2=0.1;size=10;" parent="fFh5RqsiBWmTlAHbZuiL-112" vertex="1">
          <mxGeometry x="280" y="5" width="85" height="79" as="geometry" />
        </mxCell>
        <mxCell id="fFh5RqsiBWmTlAHbZuiL-111" style="edgeStyle=orthogonalEdgeStyle;rounded=0;orthogonalLoop=1;jettySize=auto;html=1;entryX=0;entryY=0;entryDx=37.5;entryDy=0;entryPerimeter=0;curved=1;" parent="fFh5RqsiBWmTlAHbZuiL-112" source="fFh5RqsiBWmTlAHbZuiL-92" target="fFh5RqsiBWmTlAHbZuiL-94" edge="1">
          <mxGeometry relative="1" as="geometry">
            <mxPoint x="355.5651643172555" y="226.86967136548947" as="targetPoint" />
            <Array as="points">
              <mxPoint x="451" y="154" />
              <mxPoint x="248" y="154" />
            </Array>
          </mxGeometry>
        </mxCell>
        <mxCell id="fFh5RqsiBWmTlAHbZuiL-92" value="Filtro R" style="shape=cube;whiteSpace=wrap;html=1;boundedLbl=1;backgroundOutline=1;darkOpacity=0.05;darkOpacity2=0.1;size=10;" parent="fFh5RqsiBWmTlAHbZuiL-112" vertex="1">
          <mxGeometry x="408" y="5" width="85" height="79" as="geometry" />
        </mxCell>
        <mxCell id="fFh5RqsiBWmTlAHbZuiL-94" value="E5" style="shape=cube;whiteSpace=wrap;html=1;boundedLbl=1;backgroundOutline=1;darkOpacity=0.05;darkOpacity2=0.1;size=10;" parent="fFh5RqsiBWmTlAHbZuiL-112" vertex="1">
          <mxGeometry x="210" y="203" width="85" height="79" as="geometry" />
        </mxCell>
        <mxCell id="fFh5RqsiBWmTlAHbZuiL-108" style="edgeStyle=orthogonalEdgeStyle;rounded=0;orthogonalLoop=1;jettySize=auto;html=1;exitX=0;exitY=0;exitDx=47.5;exitDy=79;exitPerimeter=0;entryX=0;entryY=0;entryDx=37.5;entryDy=0;entryPerimeter=0;curved=1;" parent="fFh5RqsiBWmTlAHbZuiL-112" source="fFh5RqsiBWmTlAHbZuiL-58" target="fFh5RqsiBWmTlAHbZuiL-94" edge="1">
          <mxGeometry relative="1" as="geometry" />
        </mxCell>
        <mxCell id="fFh5RqsiBWmTlAHbZuiL-110" style="edgeStyle=orthogonalEdgeStyle;rounded=0;orthogonalLoop=1;jettySize=auto;html=1;entryX=0;entryY=0;entryDx=37.5;entryDy=0;entryPerimeter=0;curved=1;" parent="fFh5RqsiBWmTlAHbZuiL-112" source="fFh5RqsiBWmTlAHbZuiL-90" target="fFh5RqsiBWmTlAHbZuiL-94" edge="1">
          <mxGeometry relative="1" as="geometry" />
        </mxCell>
        <mxCell id="fFh5RqsiBWmTlAHbZuiL-113" value="Falta 100L para a capacidade máxima" style="edgeLabel;html=1;align=center;verticalAlign=middle;resizable=0;points=[];" parent="fFh5RqsiBWmTlAHbZuiL-110" vertex="1" connectable="0">
          <mxGeometry x="0.538" y="-3" relative="1" as="geometry">
            <mxPoint x="2" y="13" as="offset" />
          </mxGeometry>
        </mxCell>
        <mxCell id="fFh5RqsiBWmTlAHbZuiL-115" value="E4" style="shape=cube;whiteSpace=wrap;html=1;boundedLbl=1;backgroundOutline=1;darkOpacity=0.05;darkOpacity2=0.1;size=10;" parent="fFh5RqsiBWmTlAHbZuiL-35" vertex="1">
          <mxGeometry x="405" y="48" width="85" height="79" as="geometry" />
        </mxCell>
        <mxCell id="fFh5RqsiBWmTlAHbZuiL-118" style="edgeStyle=orthogonalEdgeStyle;rounded=0;orthogonalLoop=1;jettySize=auto;html=1;exitX=0;exitY=0;exitDx=37.5;exitDy=0;exitPerimeter=0;entryX=0;entryY=0;entryDx=47.5;entryDy=79;entryPerimeter=0;curved=1;" parent="fFh5RqsiBWmTlAHbZuiL-35" source="fFh5RqsiBWmTlAHbZuiL-89" target="fFh5RqsiBWmTlAHbZuiL-115" edge="1">
          <mxGeometry relative="1" as="geometry" />
        </mxCell>
        <mxCell id="fFh5RqsiBWmTlAHbZuiL-119" style="edgeStyle=orthogonalEdgeStyle;rounded=0;orthogonalLoop=1;jettySize=auto;html=1;exitX=0;exitY=0;exitDx=37.5;exitDy=0;exitPerimeter=0;entryX=0;entryY=0;entryDx=47.5;entryDy=79;entryPerimeter=0;curved=1;" parent="fFh5RqsiBWmTlAHbZuiL-35" source="fFh5RqsiBWmTlAHbZuiL-90" target="fFh5RqsiBWmTlAHbZuiL-115" edge="1">
          <mxGeometry relative="1" as="geometry">
            <mxPoint x="518.521739130435" y="133.34784731657624" as="targetPoint" />
          </mxGeometry>
        </mxCell>
        <mxCell id="fFh5RqsiBWmTlAHbZuiL-120" style="edgeStyle=orthogonalEdgeStyle;rounded=0;orthogonalLoop=1;jettySize=auto;html=1;exitX=0;exitY=0;exitDx=37.5;exitDy=0;exitPerimeter=0;entryX=0;entryY=0;entryDx=47.5;entryDy=79;entryPerimeter=0;curved=1;" parent="fFh5RqsiBWmTlAHbZuiL-35" source="fFh5RqsiBWmTlAHbZuiL-92" target="fFh5RqsiBWmTlAHbZuiL-115" edge="1">
          <mxGeometry relative="1" as="geometry" />
        </mxCell>
        <mxCell id="fFh5RqsiBWmTlAHbZuiL-121" style="edgeStyle=orthogonalEdgeStyle;rounded=0;orthogonalLoop=1;jettySize=auto;html=1;exitX=0;exitY=0;exitDx=37.5;exitDy=0;exitPerimeter=0;entryX=0;entryY=0;entryDx=47.5;entryDy=79;entryPerimeter=0;curved=1;" parent="fFh5RqsiBWmTlAHbZuiL-35" source="fFh5RqsiBWmTlAHbZuiL-58" target="fFh5RqsiBWmTlAHbZuiL-115" edge="1">
          <mxGeometry relative="1" as="geometry" />
        </mxCell>
        <mxCell id="fFh5RqsiBWmTlAHbZuiL-122" value="Capacidade Máxima Atingida" style="edgeLabel;html=1;align=center;verticalAlign=middle;resizable=0;points=[];" parent="fFh5RqsiBWmTlAHbZuiL-121" vertex="1" connectable="0">
          <mxGeometry x="0.7883" relative="1" as="geometry">
            <mxPoint x="1" y="12" as="offset" />
          </mxGeometry>
        </mxCell>
        <mxCell id="fFh5RqsiBWmTlAHbZuiL-123" value="Fim" style="shape=cube;whiteSpace=wrap;html=1;boundedLbl=1;backgroundOutline=1;darkOpacity=0.05;darkOpacity2=0.1;size=10;" parent="fFh5RqsiBWmTlAHbZuiL-35" vertex="1">
          <mxGeometry x="723" y="232" width="85" height="79" as="geometry" />
        </mxCell>
        <mxCell id="fFh5RqsiBWmTlAHbZuiL-124" value="" style="edgeStyle=orthogonalEdgeStyle;rounded=0;orthogonalLoop=1;jettySize=auto;html=1;" parent="fFh5RqsiBWmTlAHbZuiL-35" source="fFh5RqsiBWmTlAHbZuiL-92" target="fFh5RqsiBWmTlAHbZuiL-123" edge="1">
          <mxGeometry relative="1" as="geometry" />
        </mxCell>
        <mxCell id="fFh5RqsiBWmTlAHbZuiL-36" value="E3" style="swimlane;whiteSpace=wrap;html=1;" parent="1" vertex="1">
          <mxGeometry x="8" y="1208" width="812" height="227" as="geometry" />
        </mxCell>
        <mxCell id="fFh5RqsiBWmTlAHbZuiL-60" value="Inicio" style="shape=cube;whiteSpace=wrap;html=1;boundedLbl=1;backgroundOutline=1;darkOpacity=0.05;darkOpacity2=0.1;" parent="fFh5RqsiBWmTlAHbZuiL-36" vertex="1">
          <mxGeometry x="27" y="82" width="90" height="43" as="geometry" />
        </mxCell>
        <mxCell id="fFh5RqsiBWmTlAHbZuiL-69" style="edgeStyle=orthogonalEdgeStyle;rounded=0;orthogonalLoop=1;jettySize=auto;html=1;exitX=0;exitY=0;exitDx=109;exitDy=73.5;exitPerimeter=0;" parent="fFh5RqsiBWmTlAHbZuiL-36" source="fFh5RqsiBWmTlAHbZuiL-61" target="fFh5RqsiBWmTlAHbZuiL-68" edge="1">
          <mxGeometry relative="1" as="geometry" />
        </mxCell>
        <mxCell id="fFh5RqsiBWmTlAHbZuiL-61" value="Monitoramento de vazamentos" style="shape=cube;whiteSpace=wrap;html=1;boundedLbl=1;backgroundOutline=1;darkOpacity=0.05;darkOpacity2=0.1;" parent="fFh5RqsiBWmTlAHbZuiL-36" vertex="1">
          <mxGeometry x="231" y="60" width="109" height="127" as="geometry" />
        </mxCell>
        <mxCell id="fFh5RqsiBWmTlAHbZuiL-62" style="edgeStyle=orthogonalEdgeStyle;rounded=0;orthogonalLoop=1;jettySize=auto;html=1;entryX=0;entryY=0;entryDx=0;entryDy=53.5;entryPerimeter=0;exitX=0;exitY=0;exitDx=90;exitDy=31.5;exitPerimeter=0;" parent="fFh5RqsiBWmTlAHbZuiL-36" source="fFh5RqsiBWmTlAHbZuiL-60" target="fFh5RqsiBWmTlAHbZuiL-61" edge="1">
          <mxGeometry relative="1" as="geometry" />
        </mxCell>
        <mxCell id="fFh5RqsiBWmTlAHbZuiL-72" value="" style="edgeStyle=orthogonalEdgeStyle;rounded=0;orthogonalLoop=1;jettySize=auto;html=1;" parent="fFh5RqsiBWmTlAHbZuiL-36" source="fFh5RqsiBWmTlAHbZuiL-68" target="fFh5RqsiBWmTlAHbZuiL-71" edge="1">
          <mxGeometry relative="1" as="geometry" />
        </mxCell>
        <mxCell id="fFh5RqsiBWmTlAHbZuiL-68" value="Torneira Fecha" style="shape=cube;whiteSpace=wrap;html=1;boundedLbl=1;backgroundOutline=1;darkOpacity=0.05;darkOpacity2=0.1;size=10;" parent="fFh5RqsiBWmTlAHbZuiL-36" vertex="1">
          <mxGeometry x="433" y="95" width="85" height="79" as="geometry" />
        </mxCell>
        <mxCell id="fFh5RqsiBWmTlAHbZuiL-74" value="" style="edgeStyle=orthogonalEdgeStyle;rounded=0;orthogonalLoop=1;jettySize=auto;html=1;" parent="fFh5RqsiBWmTlAHbZuiL-36" source="fFh5RqsiBWmTlAHbZuiL-71" target="fFh5RqsiBWmTlAHbZuiL-73" edge="1">
          <mxGeometry relative="1" as="geometry" />
        </mxCell>
        <mxCell id="fFh5RqsiBWmTlAHbZuiL-71" value="Acende o Led Vermelho" style="shape=cube;whiteSpace=wrap;html=1;boundedLbl=1;backgroundOutline=1;darkOpacity=0.05;darkOpacity2=0.1;size=10;" parent="fFh5RqsiBWmTlAHbZuiL-36" vertex="1">
          <mxGeometry x="566" y="95" width="85" height="79" as="geometry" />
        </mxCell>
        <mxCell id="fFh5RqsiBWmTlAHbZuiL-73" value="Notificação&lt;div&gt;no&lt;/div&gt;&lt;div&gt;Telemovel&lt;/div&gt;" style="shape=cube;whiteSpace=wrap;html=1;boundedLbl=1;backgroundOutline=1;darkOpacity=0.05;darkOpacity2=0.1;size=10;" parent="fFh5RqsiBWmTlAHbZuiL-36" vertex="1">
          <mxGeometry x="699" y="95" width="85" height="79" as="geometry" />
        </mxCell>
        <mxCell id="fFh5RqsiBWmTlAHbZuiL-137" value="E6" style="swimlane;whiteSpace=wrap;html=1;startSize=23;" parent="1" vertex="1">
          <mxGeometry x="3" y="2172" width="821" height="150" as="geometry">
            <mxRectangle x="3" y="1999" width="50" height="26" as="alternateBounds" />
          </mxGeometry>
        </mxCell>
        <mxCell id="fFh5RqsiBWmTlAHbZuiL-138" value="Inicio" style="shape=cube;whiteSpace=wrap;html=1;boundedLbl=1;backgroundOutline=1;darkOpacity=0.05;darkOpacity2=0.1;" parent="fFh5RqsiBWmTlAHbZuiL-137" vertex="1">
          <mxGeometry x="226" y="62" width="90" height="43" as="geometry" />
        </mxCell>
        <mxCell id="fFh5RqsiBWmTlAHbZuiL-153" value="" style="edgeStyle=orthogonalEdgeStyle;rounded=0;orthogonalLoop=1;jettySize=auto;html=1;exitX=0;exitY=0;exitDx=90;exitDy=31.5;exitPerimeter=0;" parent="fFh5RqsiBWmTlAHbZuiL-137" source="fFh5RqsiBWmTlAHbZuiL-138" target="fFh5RqsiBWmTlAHbZuiL-156" edge="1">
          <mxGeometry relative="1" as="geometry">
            <mxPoint x="274" y="94.49999999999955" as="sourcePoint" />
          </mxGeometry>
        </mxCell>
        <mxCell id="fFh5RqsiBWmTlAHbZuiL-155" value="" style="edgeStyle=orthogonalEdgeStyle;rounded=0;orthogonalLoop=1;jettySize=auto;html=1;" parent="fFh5RqsiBWmTlAHbZuiL-137" source="fFh5RqsiBWmTlAHbZuiL-156" target="fFh5RqsiBWmTlAHbZuiL-157" edge="1">
          <mxGeometry relative="1" as="geometry" />
        </mxCell>
        <mxCell id="fFh5RqsiBWmTlAHbZuiL-156" value="Acende o Led Amarelo" style="shape=cube;whiteSpace=wrap;html=1;boundedLbl=1;backgroundOutline=1;darkOpacity=0.05;darkOpacity2=0.1;size=10;" parent="fFh5RqsiBWmTlAHbZuiL-137" vertex="1">
          <mxGeometry x="376" y="54" width="85" height="79" as="geometry" />
        </mxCell>
        <mxCell id="fFh5RqsiBWmTlAHbZuiL-157" value="Notificação&lt;div&gt;no&lt;/div&gt;&lt;div&gt;Telemovel&lt;/div&gt;" style="shape=cube;whiteSpace=wrap;html=1;boundedLbl=1;backgroundOutline=1;darkOpacity=0.05;darkOpacity2=0.1;size=10;" parent="fFh5RqsiBWmTlAHbZuiL-137" vertex="1">
          <mxGeometry x="509" y="54" width="85" height="79" as="geometry" />
        </mxCell>
        <mxCell id="fFh5RqsiBWmTlAHbZuiL-159" value="E5" style="swimlane;whiteSpace=wrap;html=1;" parent="1" vertex="1">
          <mxGeometry x="3" y="1993" width="819" height="167" as="geometry">
            <mxRectangle x="3" y="1820" width="50" height="26" as="alternateBounds" />
          </mxGeometry>
        </mxCell>
        <mxCell id="fFh5RqsiBWmTlAHbZuiL-160" value="Inicio" style="shape=cube;whiteSpace=wrap;html=1;boundedLbl=1;backgroundOutline=1;darkOpacity=0.05;darkOpacity2=0.1;" parent="fFh5RqsiBWmTlAHbZuiL-159" vertex="1">
          <mxGeometry x="162" y="65" width="90" height="43" as="geometry" />
        </mxCell>
        <mxCell id="fFh5RqsiBWmTlAHbZuiL-161" style="edgeStyle=orthogonalEdgeStyle;rounded=0;orthogonalLoop=1;jettySize=auto;html=1;exitX=0;exitY=0;exitDx=90;exitDy=31.5;exitPerimeter=0;entryX=0;entryY=0;entryDx=0;entryDy=34.49999999999999;entryPerimeter=0;" parent="fFh5RqsiBWmTlAHbZuiL-159" source="fFh5RqsiBWmTlAHbZuiL-160" target="fFh5RqsiBWmTlAHbZuiL-163" edge="1">
          <mxGeometry relative="1" as="geometry">
            <mxPoint x="151" y="97.50000000000023" as="targetPoint" />
          </mxGeometry>
        </mxCell>
        <mxCell id="fFh5RqsiBWmTlAHbZuiL-162" value="" style="edgeStyle=orthogonalEdgeStyle;rounded=0;orthogonalLoop=1;jettySize=auto;html=1;" parent="fFh5RqsiBWmTlAHbZuiL-159" source="fFh5RqsiBWmTlAHbZuiL-163" target="fFh5RqsiBWmTlAHbZuiL-165" edge="1">
          <mxGeometry relative="1" as="geometry" />
        </mxCell>
        <mxCell id="fFh5RqsiBWmTlAHbZuiL-163" value="Torneira Fecha" style="shape=cube;whiteSpace=wrap;html=1;boundedLbl=1;backgroundOutline=1;darkOpacity=0.05;darkOpacity2=0.1;size=10;" parent="fFh5RqsiBWmTlAHbZuiL-159" vertex="1">
          <mxGeometry x="308" y="61" width="85" height="79" as="geometry" />
        </mxCell>
        <mxCell id="fFh5RqsiBWmTlAHbZuiL-164" value="" style="edgeStyle=orthogonalEdgeStyle;rounded=0;orthogonalLoop=1;jettySize=auto;html=1;" parent="fFh5RqsiBWmTlAHbZuiL-159" source="fFh5RqsiBWmTlAHbZuiL-165" target="fFh5RqsiBWmTlAHbZuiL-166" edge="1">
          <mxGeometry relative="1" as="geometry" />
        </mxCell>
        <mxCell id="fFh5RqsiBWmTlAHbZuiL-165" value="Acende o Led Vermelho" style="shape=cube;whiteSpace=wrap;html=1;boundedLbl=1;backgroundOutline=1;darkOpacity=0.05;darkOpacity2=0.1;size=10;" parent="fFh5RqsiBWmTlAHbZuiL-159" vertex="1">
          <mxGeometry x="441" y="61" width="85" height="79" as="geometry" />
        </mxCell>
        <mxCell id="fFh5RqsiBWmTlAHbZuiL-166" value="Notificação&lt;div&gt;no&lt;/div&gt;&lt;div&gt;Telemovel&lt;/div&gt;" style="shape=cube;whiteSpace=wrap;html=1;boundedLbl=1;backgroundOutline=1;darkOpacity=0.05;darkOpacity2=0.1;size=10;" parent="fFh5RqsiBWmTlAHbZuiL-159" vertex="1">
          <mxGeometry x="574" y="61" width="85" height="79" as="geometry" />
        </mxCell>
        <mxCell id="fFh5RqsiBWmTlAHbZuiL-169" value="E1" style="swimlane;whiteSpace=wrap;html=1;" parent="1" vertex="1">
          <mxGeometry x="7.5" y="597" width="810" height="378" as="geometry">
            <mxRectangle x="86" y="812" width="50" height="26" as="alternateBounds" />
          </mxGeometry>
        </mxCell>
        <mxCell id="fFh5RqsiBWmTlAHbZuiL-170" value="" style="edgeStyle=orthogonalEdgeStyle;rounded=0;orthogonalLoop=1;jettySize=auto;html=1;entryX=0;entryY=0;entryDx=0;entryDy=53.5;entryPerimeter=0;" parent="fFh5RqsiBWmTlAHbZuiL-169" source="fFh5RqsiBWmTlAHbZuiL-172" target="fFh5RqsiBWmTlAHbZuiL-183" edge="1">
          <mxGeometry relative="1" as="geometry">
            <mxPoint x="214" y="109" as="targetPoint" />
          </mxGeometry>
        </mxCell>
        <mxCell id="fFh5RqsiBWmTlAHbZuiL-172" value="Inicio" style="shape=cube;whiteSpace=wrap;html=1;boundedLbl=1;backgroundOutline=1;darkOpacity=0.05;darkOpacity2=0.1;" parent="fFh5RqsiBWmTlAHbZuiL-169" vertex="1">
          <mxGeometry x="25" y="81" width="90" height="43" as="geometry" />
        </mxCell>
        <mxCell id="fFh5RqsiBWmTlAHbZuiL-192" value="" style="edgeStyle=orthogonalEdgeStyle;rounded=0;orthogonalLoop=1;jettySize=auto;html=1;entryX=0;entryY=0;entryDx=0;entryDy=34.5;entryPerimeter=0;" parent="fFh5RqsiBWmTlAHbZuiL-169" source="fFh5RqsiBWmTlAHbZuiL-183" target="fFh5RqsiBWmTlAHbZuiL-193" edge="1">
          <mxGeometry relative="1" as="geometry">
            <mxPoint x="383" y="112.5" as="targetPoint" />
          </mxGeometry>
        </mxCell>
        <mxCell id="fFh5RqsiBWmTlAHbZuiL-195" value="Não" style="edgeLabel;html=1;align=center;verticalAlign=middle;resizable=0;points=[];" parent="fFh5RqsiBWmTlAHbZuiL-192" vertex="1" connectable="0">
          <mxGeometry x="-0.1905" y="-4" relative="1" as="geometry">
            <mxPoint x="3" y="-4" as="offset" />
          </mxGeometry>
        </mxCell>
        <mxCell id="fFh5RqsiBWmTlAHbZuiL-183" value="Testar sensores" style="shape=cube;whiteSpace=wrap;html=1;boundedLbl=1;backgroundOutline=1;darkOpacity=0.05;darkOpacity2=0.1;" parent="fFh5RqsiBWmTlAHbZuiL-169" vertex="1">
          <mxGeometry x="152" y="49" width="151" height="127" as="geometry" />
        </mxCell>
        <mxCell id="fFh5RqsiBWmTlAHbZuiL-185" value="E2" style="shape=cube;whiteSpace=wrap;html=1;boundedLbl=1;backgroundOutline=1;darkOpacity=0.05;darkOpacity2=0.1;size=10;" parent="fFh5RqsiBWmTlAHbZuiL-169" vertex="1">
          <mxGeometry x="302" y="197" width="85" height="79" as="geometry" />
        </mxCell>
        <mxCell id="fFh5RqsiBWmTlAHbZuiL-186" value="E3" style="shape=cube;whiteSpace=wrap;html=1;boundedLbl=1;backgroundOutline=1;darkOpacity=0.05;darkOpacity2=0.1;size=10;" parent="fFh5RqsiBWmTlAHbZuiL-169" vertex="1">
          <mxGeometry x="305" y="287" width="85" height="79" as="geometry" />
        </mxCell>
        <mxCell id="fFh5RqsiBWmTlAHbZuiL-188" style="edgeStyle=orthogonalEdgeStyle;rounded=0;orthogonalLoop=1;jettySize=auto;html=1;exitX=0;exitY=0;exitDx=85.5;exitDy=127;exitPerimeter=0;entryX=0;entryY=0;entryDx=0;entryDy=34.5;entryPerimeter=0;curved=1;" parent="fFh5RqsiBWmTlAHbZuiL-169" source="fFh5RqsiBWmTlAHbZuiL-183" target="fFh5RqsiBWmTlAHbZuiL-185" edge="1">
          <mxGeometry relative="1" as="geometry" />
        </mxCell>
        <mxCell id="fFh5RqsiBWmTlAHbZuiL-189" style="edgeStyle=orthogonalEdgeStyle;rounded=0;orthogonalLoop=1;jettySize=auto;html=1;exitX=0;exitY=0;exitDx=85.5;exitDy=127;exitPerimeter=0;entryX=0;entryY=0;entryDx=0;entryDy=34.5;entryPerimeter=0;curved=1;" parent="fFh5RqsiBWmTlAHbZuiL-169" source="fFh5RqsiBWmTlAHbZuiL-183" target="fFh5RqsiBWmTlAHbZuiL-186" edge="1">
          <mxGeometry relative="1" as="geometry" />
        </mxCell>
        <mxCell id="fFh5RqsiBWmTlAHbZuiL-190" value="OK" style="edgeLabel;html=1;align=center;verticalAlign=middle;resizable=0;points=[];" parent="fFh5RqsiBWmTlAHbZuiL-189" vertex="1" connectable="0">
          <mxGeometry x="-0.1729" y="3" relative="1" as="geometry">
            <mxPoint x="-2" y="-70" as="offset" />
          </mxGeometry>
        </mxCell>
        <mxCell id="fFh5RqsiBWmTlAHbZuiL-193" value="Led Vermelho" style="shape=cube;whiteSpace=wrap;html=1;boundedLbl=1;backgroundOutline=1;darkOpacity=0.05;darkOpacity2=0.1;size=10;" parent="fFh5RqsiBWmTlAHbZuiL-169" vertex="1">
          <mxGeometry x="387" y="78" width="85" height="79" as="geometry" />
        </mxCell>
        <mxCell id="fFh5RqsiBWmTlAHbZuiL-194" value="Enviar notififcação" style="shape=cube;whiteSpace=wrap;html=1;boundedLbl=1;backgroundOutline=1;darkOpacity=0.05;darkOpacity2=0.1;size=10;" parent="fFh5RqsiBWmTlAHbZuiL-169" vertex="1">
          <mxGeometry x="538" y="81" width="85" height="79" as="geometry" />
        </mxCell>
        <mxCell id="fFh5RqsiBWmTlAHbZuiL-196" style="edgeStyle=orthogonalEdgeStyle;rounded=0;orthogonalLoop=1;jettySize=auto;html=1;exitX=0;exitY=0;exitDx=85;exitDy=44.5;exitPerimeter=0;entryX=0;entryY=0;entryDx=0;entryDy=34.5;entryPerimeter=0;curved=1;" parent="fFh5RqsiBWmTlAHbZuiL-169" source="fFh5RqsiBWmTlAHbZuiL-193" target="fFh5RqsiBWmTlAHbZuiL-194" edge="1">
          <mxGeometry relative="1" as="geometry" />
        </mxCell>
        <mxCell id="fFh5RqsiBWmTlAHbZuiL-199" value="Fim" style="shape=cube;whiteSpace=wrap;html=1;boundedLbl=1;backgroundOutline=1;darkOpacity=0.05;darkOpacity2=0.1;" parent="fFh5RqsiBWmTlAHbZuiL-169" vertex="1">
          <mxGeometry x="683" y="103" width="90" height="43" as="geometry" />
        </mxCell>
        <mxCell id="fFh5RqsiBWmTlAHbZuiL-200" style="edgeStyle=orthogonalEdgeStyle;rounded=0;orthogonalLoop=1;jettySize=auto;html=1;exitX=0;exitY=0;exitDx=85;exitDy=44.5;exitPerimeter=0;entryX=0;entryY=0;entryDx=0;entryDy=23;entryPerimeter=0;" parent="fFh5RqsiBWmTlAHbZuiL-169" source="fFh5RqsiBWmTlAHbZuiL-194" target="fFh5RqsiBWmTlAHbZuiL-199" edge="1">
          <mxGeometry relative="1" as="geometry" />
        </mxCell>
        <mxCell id="fFh5RqsiBWmTlAHbZuiL-179" value="E1" style="ellipse;whiteSpace=wrap;html=1;aspect=fixed;" parent="1" vertex="1">
          <mxGeometry x="118" y="462" width="80" height="80" as="geometry" />
        </mxCell>
      </root>
    </mxGraphModel>
  </diagram>
</mxfile>
